<?xml version="1.0" encoding="UTF-8" standalone="no"?><!-- Generator: Gravit.io --><svg xmlns="http://www.w3.org/2000/svg" xmlns:xlink="http://www.w3.org/1999/xlink" style="isolation:isolate" viewBox="0 0 1000 1000" width="1000pt" height="1000pt"><defs><clipPath id="_clipPath_GEQHWVAo9lcMpwk8gzlrza9ZtscKW0SY"><rect width="1000" height="1000"/></clipPath></defs><g clip-path="url(#_clipPath_GEQHWVAo9lcMpwk8gzlrza9ZtscKW0SY)"><clipPath id="_clipPath_J5UL3hRElmGAy2tG1Bg7F7UNsXm6bzLx"><path d=" M 0 0 L 1000 0 L 1000 1000 L 0 1000 L 0 0 Z " fill="rgb(255,255,255)"/></clipPath><g clip-path="url(#_clipPath_J5UL3hRElmGAy2tG1Bg7F7UNsXm6bzLx)"><path d=" M 125.25 647.342 L 144.066 647.342 C 150.965 647.342 156.61 641.227 156.61 633.231 C 156.61 625.234 150.965 619.118 144.066 619.118 L 125.25 619.118 L 125.25 647.342 Z  M 137.167 669.294 L 125.25 669.294 L 125.25 705.358 L 100.163 705.358 L 100.163 595.6 L 144.066 595.6 C 164.92 595.6 181.698 612.377 181.698 633.231 C 181.698 646.715 173.543 658.946 161.47 665.061 L 184.833 705.358 L 157.865 705.358 L 137.167 669.294 Z " fill="rgb(40,79,248)"/><path d=" M 278.282 650.478 C 278.282 631.554 264.657 618.988 247.399 618.988 C 230.139 618.988 216.514 631.554 216.514 650.478 C 216.514 669.403 230.139 681.969 247.399 681.969 C 264.657 681.969 278.282 669.403 278.282 650.478 Z  M 192.29 650.478 C 192.29 619.291 216.968 595.371 247.399 595.371 C 277.828 595.371 302.506 619.291 302.506 650.478 C 302.506 681.666 277.828 705.586 247.399 705.586 C 216.968 705.586 192.29 681.666 192.29 650.478 Z " fill="rgb(40,79,248)"/><path d=" M 401.712 650.478 C 401.712 631.633 388.144 619.12 370.957 619.12 C 353.769 619.12 340.201 631.633 340.201 650.478 C 340.201 669.324 353.769 681.837 370.957 681.837 C 388.144 681.837 401.712 669.324 401.712 650.478 Z  M 316.079 650.478 C 316.079 619.42 340.652 595.6 370.957 595.6 C 401.26 595.6 425.834 619.42 425.834 650.478 C 425.834 681.537 401.26 705.356 370.957 705.356 C 340.652 705.356 316.079 681.537 316.079 650.478 Z " fill="rgb(40,79,248)"/><path d=" M 509.568 619.748 L 481.344 619.748 L 481.344 705.358 L 456.258 705.358 L 456.258 619.748 L 428.034 619.748 L 428.034 595.601 L 509.568 595.601 L 509.568 619.748 Z " fill="rgb(40,79,248)"/><path d=" M 644.416 595.6 L 644.416 705.358 L 619.329 705.358 L 619.329 661.768 L 584.833 661.768 L 584.833 705.358 L 559.746 705.358 L 559.746 595.6 L 584.833 595.6 L 584.833 637.621 L 619.329 637.621 L 619.329 595.6 L 644.416 595.6 Z " fill="rgb(255,255,255)"/><path d=" M 732.224 681.21 L 732.224 705.357 L 663.234 705.357 L 663.234 595.6 L 731.44 595.6 L 731.44 619.747 L 688.321 619.747 L 688.321 637.934 L 727.52 637.934 L 727.52 661.768 L 688.321 661.768 L 688.321 681.21 L 732.224 681.21 Z " fill="rgb(255,255,255)"/><path d=" M 771.425 705.358 L 746.338 705.358 L 746.338 595.6 L 771.425 595.6 L 771.425 705.358 Z " fill="rgb(255,255,255)"/><path d=" M 900 705.358 L 874.913 705.358 L 874.913 641.541 L 846.532 688.111 L 843.71 688.111 L 815.33 641.541 L 815.33 705.358 L 790.242 705.358 L 790.242 595.6 L 815.33 595.6 L 845.122 644.364 L 874.913 595.6 L 900 595.6 L 900 705.358 Z " fill="rgb(255,255,255)"/><path d=" M 107.195 729.586 L 100 729.586 L 100 725.345 L 119.595 725.345 L 119.595 729.586 L 112.4 729.586 L 112.4 747.832 L 107.195 747.832 L 107.195 729.586 Z " fill="rgb(169,169,169)"/><path d=" M 153.807 743.656 L 153.807 747.833 L 136.396 747.833 L 136.396 725.345 L 153.39 725.345 L 153.39 729.523 L 141.569 729.523 L 141.569 734.404 L 152.008 734.404 L 152.008 738.452 L 141.569 738.452 L 141.569 743.656 L 153.807 743.656 Z " fill="rgb(169,169,169)"/><path d=" M 176.438 746.724 C 174.586 745.728 173.129 744.346 172.069 742.58 C 171.008 740.813 170.48 738.817 170.48 736.588 C 170.48 734.363 171.008 732.364 172.069 730.597 C 173.129 728.831 174.586 727.45 176.438 726.453 C 178.29 725.458 180.373 724.959 182.686 724.959 C 184.634 724.959 186.396 725.303 187.971 725.988 C 189.544 726.673 190.867 727.658 191.938 728.944 L 188.597 732.028 C 187.076 730.271 185.192 729.393 182.943 729.393 C 181.55 729.393 180.309 729.698 179.217 730.309 C 178.125 730.919 177.273 731.77 176.664 732.862 C 176.053 733.954 175.748 735.197 175.748 736.588 C 175.748 737.98 176.053 739.223 176.664 740.315 C 177.273 741.408 178.125 742.257 179.217 742.87 C 180.309 743.479 181.55 743.784 182.943 743.784 C 185.192 743.784 187.076 742.896 188.597 741.118 L 191.938 744.203 C 190.867 745.508 189.539 746.504 187.954 747.189 C 186.369 747.873 184.602 748.217 182.654 748.217 C 180.362 748.217 178.29 747.719 176.438 746.724 Z " fill="rgb(169,169,169)"/><path d=" M 230.068 725.345 L 230.068 747.832 L 225.795 747.832 L 214.585 734.178 L 214.585 747.832 L 209.444 747.832 L 209.444 725.345 L 213.749 725.345 L 224.928 738.998 L 224.928 725.345 L 230.068 725.345 Z " fill="rgb(169,169,169)"/><path d=" M 263.894 742.87 C 264.964 742.258 265.806 741.408 266.415 740.315 C 267.026 739.224 267.331 737.98 267.331 736.589 C 267.331 735.197 267.026 733.955 266.415 732.862 C 265.806 731.77 264.964 730.92 263.894 730.309 C 262.823 729.698 261.623 729.393 260.295 729.393 C 258.968 729.393 257.769 729.698 256.699 730.309 C 255.627 730.92 254.787 731.77 254.177 732.862 C 253.566 733.955 253.262 735.197 253.262 736.589 C 253.262 737.98 253.566 739.224 254.177 740.315 C 254.787 741.408 255.627 742.258 256.699 742.87 C 257.769 743.479 258.968 743.784 260.295 743.784 C 261.623 743.784 262.823 743.479 263.894 742.87 Z  M 253.984 746.708 C 252.109 745.702 250.643 744.314 249.582 742.548 C 248.522 740.78 247.993 738.796 247.993 736.589 C 247.993 734.384 248.522 732.398 249.582 730.631 C 250.643 728.863 252.109 727.477 253.984 726.47 C 255.858 725.464 257.962 724.96 260.295 724.96 C 262.63 724.96 264.729 725.464 266.592 726.47 C 268.456 727.477 269.922 728.863 270.994 730.631 C 272.063 732.398 272.599 734.384 272.599 736.589 C 272.599 738.796 272.063 740.78 270.994 742.548 C 269.922 744.314 268.456 745.702 266.592 746.708 C 264.729 747.716 262.63 748.218 260.295 748.218 C 257.962 748.218 255.858 747.716 253.984 746.708 Z " fill="rgb(169,169,169)"/><path d=" M 290.523 725.345 L 295.727 725.345 L 295.727 743.59 L 307.002 743.59 L 307.002 747.832 L 290.523 747.832 L 290.523 725.345 Z " fill="rgb(169,169,169)"/><path d=" M 338.035 742.87 C 339.105 742.258 339.947 741.408 340.556 740.315 C 341.167 739.224 341.472 737.98 341.472 736.589 C 341.472 735.197 341.167 733.955 340.556 732.862 C 339.947 731.77 339.105 730.92 338.035 730.309 C 336.964 729.698 335.764 729.393 334.436 729.393 C 333.109 729.393 331.91 729.698 330.84 730.309 C 329.768 730.92 328.928 731.77 328.318 732.862 C 327.707 733.955 327.403 735.197 327.403 736.589 C 327.403 737.98 327.707 739.224 328.318 740.315 C 328.928 741.408 329.768 742.258 330.84 742.87 C 331.91 743.479 333.109 743.784 334.436 743.784 C 335.764 743.784 336.964 743.479 338.035 742.87 Z  M 328.125 746.708 C 326.25 745.702 324.784 744.314 323.723 742.548 C 322.663 740.78 322.134 738.796 322.134 736.589 C 322.134 734.384 322.663 732.398 323.723 730.631 C 324.784 728.863 326.25 727.477 328.125 726.47 C 329.999 725.464 332.103 724.96 334.436 724.96 C 336.771 724.96 338.87 725.464 340.733 726.47 C 342.597 727.477 344.063 728.863 345.135 730.631 C 346.204 732.398 346.74 734.384 346.74 736.589 C 346.74 738.796 346.204 740.78 345.135 742.548 C 344.063 744.314 342.597 745.702 340.733 746.708 C 338.87 747.716 336.771 748.218 334.436 748.218 C 332.103 748.218 329.999 747.716 328.125 746.708 Z " fill="rgb(169,169,169)"/><path d=" M 379.859 736.235 L 384.614 736.235 L 384.614 745.358 C 383.394 746.279 381.98 746.986 380.374 747.479 C 378.767 747.971 377.15 748.217 375.523 748.217 C 373.188 748.217 371.09 747.719 369.227 746.724 C 367.363 745.728 365.902 744.346 364.842 742.581 C 363.782 740.813 363.252 738.817 363.252 736.589 C 363.252 734.363 363.782 732.364 364.842 730.597 C 365.902 728.832 367.375 727.45 369.259 726.453 C 371.143 725.459 373.263 724.96 375.619 724.96 C 377.589 724.96 379.378 725.293 380.984 725.957 C 382.591 726.62 383.939 727.583 385.031 728.846 L 381.691 731.93 C 380.085 730.24 378.146 729.393 375.877 729.393 C 374.441 729.393 373.168 729.693 372.054 730.294 C 370.94 730.892 370.073 731.738 369.452 732.831 C 368.83 733.922 368.52 735.175 368.52 736.589 C 368.52 737.98 368.83 739.223 369.452 740.315 C 370.073 741.408 370.934 742.257 372.038 742.87 C 373.14 743.479 374.399 743.784 375.813 743.784 C 377.311 743.784 378.66 743.463 379.859 742.82 L 379.859 736.235 Z " fill="rgb(169,169,169)"/><path d=" M 403.438 725.345 L 408.642 725.345 L 408.642 747.832 L 403.438 747.832 L 403.438 725.345 Z  M 407.454 718.889 L 412.85 718.889 L 407.035 723.514 L 403.117 723.514 L 407.454 718.889 Z " fill="rgb(169,169,169)"/><path d=" M 441.15 739.063 L 437.584 730.453 L 434.019 739.063 L 441.15 739.063 Z  M 442.788 743.013 L 432.348 743.013 L 430.357 747.833 L 425.024 747.833 L 435.047 725.345 L 440.186 725.345 L 450.241 747.833 L 444.781 747.833 L 442.788 743.013 Z " fill="rgb(169,169,169)"/><path d=" M 507.1 743.656 L 507.1 747.833 L 489.688 747.833 L 489.688 725.345 L 506.683 725.345 L 506.683 729.523 L 494.86 729.523 L 494.86 734.404 L 505.301 734.404 L 505.301 738.452 L 494.86 738.452 L 494.86 743.656 L 507.1 743.656 Z " fill="rgb(169,169,169)"/><path d=" M 545.872 725.345 L 545.872 747.832 L 541.599 747.832 L 530.39 734.178 L 530.39 747.832 L 525.248 747.832 L 525.248 725.345 L 529.552 725.345 L 540.732 738.998 L 540.732 725.345 L 545.872 725.345 Z " fill="rgb(169,169,169)"/><path d=" M 592.965 729.586 L 585.77 729.586 L 585.77 725.345 L 605.365 725.345 L 605.365 729.586 L 598.169 729.586 L 598.169 747.832 L 592.965 747.832 L 592.965 729.586 Z " fill="rgb(169,169,169)"/><path d=" M 624.269 745.551 C 622.482 743.775 621.586 741.237 621.586 737.938 L 621.586 725.345 L 626.791 725.345 L 626.791 737.744 C 626.791 741.772 628.463 743.783 631.804 743.783 C 633.43 743.783 634.672 743.298 635.529 742.322 C 636.385 741.348 636.813 739.822 636.813 737.744 L 636.813 725.345 L 641.955 725.345 L 641.955 737.938 C 641.955 741.237 641.06 743.775 639.271 745.551 C 637.484 747.328 634.982 748.217 631.769 748.217 C 628.558 748.217 626.057 747.328 624.269 745.551 Z " fill="rgb(169,169,169)"/><path d=" M 663.332 747.496 C 661.672 747.015 660.339 746.387 659.332 745.616 L 661.099 741.696 C 662.063 742.403 663.208 742.971 664.536 743.399 C 665.864 743.828 667.192 744.042 668.519 744.042 C 669.997 744.042 671.089 743.822 671.796 743.383 C 672.503 742.945 672.857 742.361 672.857 741.632 C 672.857 741.098 672.648 740.652 672.229 740.299 C 671.811 739.945 671.276 739.662 670.624 739.447 C 669.971 739.234 669.087 738.999 667.974 738.742 C 666.26 738.334 664.857 737.928 663.765 737.521 C 662.674 737.115 661.736 736.461 660.954 735.562 C 660.172 734.662 659.782 733.463 659.782 731.964 C 659.782 730.657 660.136 729.473 660.842 728.414 C 661.549 727.353 662.614 726.514 664.039 725.892 C 665.462 725.27 667.203 724.96 669.258 724.96 C 670.693 724.96 672.096 725.132 673.466 725.474 C 674.837 725.817 676.036 726.309 677.064 726.951 L 675.459 730.903 C 673.381 729.726 671.304 729.137 669.226 729.137 C 667.769 729.137 666.694 729.373 665.998 729.843 C 665.302 730.314 664.955 730.935 664.955 731.706 C 664.955 732.477 665.355 733.051 666.158 733.425 C 666.961 733.801 668.187 734.169 669.837 734.532 C 671.55 734.94 672.953 735.348 674.045 735.754 C 675.137 736.16 676.074 736.804 676.856 737.682 C 677.637 738.559 678.027 739.748 678.027 741.248 C 678.027 742.532 677.67 743.705 676.952 744.766 C 676.234 745.824 675.158 746.666 673.724 747.287 C 672.289 747.907 670.542 748.218 668.487 748.218 C 666.709 748.218 664.991 747.977 663.332 747.496 Z " fill="rgb(169,169,169)"/><path d=" M 739.158 747.833 L 739.126 734.341 L 732.509 745.456 L 730.163 745.456 L 723.578 734.63 L 723.578 747.833 L 718.696 747.833 L 718.696 725.346 L 723 725.346 L 731.417 739.318 L 739.705 725.346 L 743.977 725.346 L 744.041 747.833 L 739.158 747.833 Z " fill="rgb(169,169,169)"/><path d=" M 776.55 739.063 L 772.984 730.453 L 769.418 739.063 L 776.55 739.063 Z  M 778.188 743.013 L 767.747 743.013 L 765.756 747.833 L 760.424 747.833 L 770.446 725.345 L 775.586 725.345 L 785.64 747.833 L 780.18 747.833 L 778.188 743.013 Z " fill="rgb(169,169,169)"/><path d=" M 822.614 725.345 L 822.614 747.832 L 818.342 747.832 L 807.131 734.178 L 807.131 747.832 L 801.99 747.832 L 801.99 725.345 L 806.296 725.345 L 817.475 738.998 L 817.475 725.345 L 822.614 725.345 Z " fill="rgb(169,169,169)"/><path d=" M 856.44 742.87 C 857.51 742.258 858.352 741.408 858.961 740.315 C 859.572 739.224 859.877 737.98 859.877 736.589 C 859.877 735.197 859.572 733.955 858.961 732.862 C 858.352 731.77 857.51 730.92 856.44 730.309 C 855.369 729.698 854.169 729.393 852.841 729.393 C 851.514 729.393 850.315 729.698 849.245 730.309 C 848.173 730.92 847.333 731.77 846.723 732.862 C 846.112 733.955 845.808 735.197 845.808 736.589 C 845.808 737.98 846.112 739.224 846.723 740.315 C 847.333 741.408 848.173 742.258 849.245 742.87 C 850.315 743.479 851.514 743.784 852.841 743.784 C 854.169 743.784 855.369 743.479 856.44 742.87 Z  M 846.53 746.708 C 844.655 745.702 843.189 744.314 842.128 742.548 C 841.068 740.78 840.539 738.796 840.539 736.589 C 840.539 734.384 841.068 732.398 842.128 730.631 C 843.189 728.863 844.655 727.477 846.53 726.47 C 848.404 725.464 850.508 724.96 852.841 724.96 C 855.176 724.96 857.275 725.464 859.138 726.47 C 861.002 727.477 862.468 728.863 863.54 730.631 C 864.609 732.398 865.145 734.384 865.145 736.589 C 865.145 738.796 864.609 740.78 863.54 742.548 C 862.468 744.314 861.002 745.702 859.138 746.708 C 857.275 747.716 855.176 748.218 852.841 748.218 C 850.508 748.218 848.404 747.716 846.53 746.708 Z " fill="rgb(169,169,169)"/><path d=" M 885.303 747.496 C 883.643 747.015 882.31 746.387 881.303 745.616 L 883.071 741.696 C 884.034 742.403 885.18 742.971 886.508 743.399 C 887.835 743.828 889.163 744.042 890.491 744.042 C 891.97 744.042 893.06 743.822 893.767 743.383 C 894.474 742.945 894.827 742.361 894.827 741.632 C 894.827 741.098 894.619 740.652 894.201 740.299 C 893.784 739.945 893.248 739.662 892.595 739.447 C 891.942 739.234 891.058 738.999 889.945 738.742 C 888.232 738.334 886.829 737.928 885.737 737.521 C 884.645 737.115 883.708 736.461 882.926 735.562 C 882.144 734.662 881.753 733.463 881.753 731.964 C 881.753 730.657 882.107 729.473 882.813 728.414 C 883.52 727.353 884.585 726.514 886.01 725.892 C 887.434 725.27 889.174 724.96 891.231 724.96 C 892.664 724.96 894.068 725.132 895.438 725.474 C 896.809 725.817 898.009 726.309 899.035 726.951 L 897.43 730.903 C 895.352 729.726 893.275 729.137 891.197 729.137 C 889.741 729.137 888.665 729.373 887.969 729.843 C 887.273 730.314 886.925 730.935 886.925 731.706 C 886.925 732.477 887.327 733.051 888.13 733.425 C 888.933 733.801 890.159 734.169 891.808 734.532 C 893.521 734.94 894.924 735.348 896.016 735.754 C 897.108 736.16 898.045 736.804 898.827 737.682 C 899.609 738.559 900 739.748 900 741.248 C 900 742.532 899.641 743.705 898.924 744.766 C 898.206 745.824 897.129 746.666 895.695 747.287 C 894.26 747.907 892.515 748.218 890.46 748.218 C 888.681 748.218 886.963 747.977 885.303 747.496 Z " fill="rgb(169,169,169)"/><path d=" M 543.028 251.783 C 527.968 251.783 513.509 254.368 500.08 259.114 C 450.037 276.802 414.185 324.528 414.185 380.632 C 414.185 404.352 433.412 423.579 457.133 423.579 C 480.854 423.579 500.08 404.352 500.08 380.632 C 500.08 356.91 519.313 337.683 543.028 337.683 C 566.749 337.683 585.981 356.91 585.981 380.632 C 585.981 436.729 550.123 484.456 500.08 502.143 C 513.509 506.889 527.968 509.474 543.028 509.474 C 614.191 509.474 671.877 451.789 671.877 380.632 C 671.877 309.469 614.191 251.783 543.028 251.783 Z " fill="rgb(6,25,119)"/><g style="mix-blend-mode:overlay;"><linearGradient id="_lgradient_0" x1="-0.0000027059540300443993" y1="0.49999897124851095" x2="0.9999989890993478" y2="0.49999897124851095" gradientTransform="matrix(257.691,0,0,257.691,414.186,251.783)" gradientUnits="userSpaceOnUse"><stop offset="0%" stop-opacity="1" style="stop-color:rgb(0,4,61)"/><stop offset="10%" stop-opacity="1" style="stop-color:rgb(3,12,67)"/><stop offset="20%" stop-opacity="1" style="stop-color:rgb(9,26,77)"/><stop offset="30.000000000000004%" stop-opacity="1" style="stop-color:rgb(17,46,90)"/><stop offset="40%" stop-opacity="1" style="stop-color:rgb(26,68,106)"/><stop offset="50%" stop-opacity="1" style="stop-color:rgb(37,94,125)"/><stop offset="60%" stop-opacity="1" style="stop-color:rgb(48,123,145)"/><stop offset="70%" stop-opacity="1" style="stop-color:rgb(61,155,167)"/><stop offset="80%" stop-opacity="1" style="stop-color:rgb(75,189,191)"/><stop offset="89.99999999999999%" stop-opacity="1" style="stop-color:rgb(90,225,217)"/><stop offset="99.99999999999999%" stop-opacity="1" style="stop-color:rgb(102,255,238)"/></linearGradient><path d=" M 543.028 251.783 C 527.969 251.783 513.51 254.368 500.081 259.114 C 450.038 276.801 414.186 324.528 414.186 380.631 C 414.186 404.352 433.412 423.579 457.133 423.579 C 480.854 423.579 500.081 404.352 500.081 380.631 C 500.081 356.91 519.313 337.683 543.028 337.683 C 566.749 337.683 585.981 356.91 585.981 380.631 C 585.981 436.729 550.123 484.456 500.081 502.143 C 513.51 506.889 527.969 509.474 543.028 509.474 C 614.191 509.474 671.877 451.789 671.877 380.631 C 671.877 309.468 614.191 251.783 543.028 251.783 Z " fill="url(#_lgradient_0)"/></g><path d=" M 543.028 337.683 C 519.313 337.683 500.08 356.91 500.08 380.631 C 500.08 404.352 480.854 423.579 457.133 423.579 C 433.412 423.579 414.185 404.352 414.185 380.631 C 414.185 324.528 450.037 276.801 500.08 259.114 C 486.646 254.368 472.192 251.783 457.133 251.783 C 385.975 251.783 328.29 309.468 328.29 380.631 C 328.29 451.788 385.975 509.474 457.133 509.474 C 472.192 509.474 486.646 506.889 500.08 502.143 C 550.123 484.455 585.981 436.729 585.981 380.631 C 585.981 356.91 566.749 337.683 543.028 337.683 Z " fill="rgb(40,79,248)"/><g style="mix-blend-mode:overlay;"><linearGradient id="_lgradient_1" x1="-5.588088060287742e-7" y1="0.49999897124851095" x2="1.00000160967981" y2="0.49999897124851095" gradientTransform="matrix(257.691,0,0,257.691,328.29,251.783)" gradientUnits="userSpaceOnUse"><stop offset="0%" stop-opacity="1" style="stop-color:rgb(40,79,248)"/><stop offset="10%" stop-opacity="1" style="stop-color:rgb(52,91,249)"/><stop offset="20%" stop-opacity="1" style="stop-color:rgb(64,103,249)"/><stop offset="30.000000000000004%" stop-opacity="1" style="stop-color:rgb(76,115,250)"/><stop offset="40%" stop-opacity="1" style="stop-color:rgb(89,127,251)"/><stop offset="50%" stop-opacity="1" style="stop-color:rgb(101,139,252)"/><stop offset="60%" stop-opacity="1" style="stop-color:rgb(113,151,252)"/><stop offset="70%" stop-opacity="1" style="stop-color:rgb(125,163,253)"/><stop offset="80%" stop-opacity="1" style="stop-color:rgb(137,175,254)"/><stop offset="89.99999999999999%" stop-opacity="1" style="stop-color:rgb(149,187,254)"/><stop offset="99.99999999999999%" stop-opacity="1" style="stop-color:rgb(161,199,255)"/></linearGradient><path d=" M 543.028 337.683 C 519.313 337.683 500.081 356.91 500.081 380.631 C 500.081 404.352 480.854 423.579 457.133 423.579 C 433.412 423.579 414.186 404.352 414.186 380.631 C 414.186 324.528 450.038 276.801 500.081 259.114 C 486.646 254.368 472.192 251.783 457.133 251.783 C 385.976 251.783 328.29 309.468 328.29 380.631 C 328.29 451.789 385.976 509.474 457.133 509.474 C 472.192 509.474 486.646 506.889 500.081 502.143 C 550.123 484.456 585.981 436.729 585.981 380.631 C 585.981 356.91 566.749 337.683 543.028 337.683 Z " fill="url(#_lgradient_1)"/></g><path d=" M 532.402 509.04 C 521.155 508.123 510.317 505.763 500.078 502.144 C 550.122 484.456 585.979 436.729 585.979 380.632 C 595.022 431.816 572.507 481.269 532.402 509.04 Z " fill="rgb(0,4,61)"/><g opacity="0.5" style="mix-blend-mode:soft-light;"><linearGradient id="_lgradient_2" x1="-0.0000030489892660001336" y1="0.5000015854228315" x2="0.9999975958529268" y2="0.5000015854228315" gradientTransform="matrix(87.89,0,0,128.42,412.189,252.211)" gradientUnits="userSpaceOnUse"><stop offset="0%" stop-opacity="1" style="stop-color:rgb(0,4,61)"/><stop offset="10%" stop-opacity="1" style="stop-color:rgb(1,6,67)"/><stop offset="20%" stop-opacity="1" style="stop-color:rgb(3,11,77)"/><stop offset="30.000000000000004%" stop-opacity="1" style="stop-color:rgb(6,16,91)"/><stop offset="40%" stop-opacity="1" style="stop-color:rgb(10,23,107)"/><stop offset="50%" stop-opacity="1" style="stop-color:rgb(14,30,126)"/><stop offset="60%" stop-opacity="1" style="stop-color:rgb(18,39,147)"/><stop offset="70%" stop-opacity="1" style="stop-color:rgb(23,48,170)"/><stop offset="80%" stop-opacity="1" style="stop-color:rgb(28,57,194)"/><stop offset="89.99999999999999%" stop-opacity="1" style="stop-color:rgb(34,68,220)"/><stop offset="99.99999999999999%" stop-opacity="1" style="stop-color:rgb(40,79,248)"/></linearGradient><path d=" M 500.079 259.114 C 450.036 276.801 414.184 324.528 414.184 380.631 C 405.125 329.461 427.607 280.003 467.686 252.211 C 478.954 253.124 489.814 255.489 500.079 259.114 Z " fill="url(#_lgradient_2)"/></g></g></g></svg>